<?xml version="1.0" encoding="UTF-8"?>
<svg version="1.1" xmlns="http://www.w3.org/2000/svg" width="303" height="323">
<path d="M0 0 C1.98526835 0.09514054 3.97303439 0.14554758 5.96054077 0.15821838 C7.12752691 0.16799241 8.29451305 0.17776644 9.49686241 0.18783665 C11.40373046 0.19649203 11.40373046 0.19649203 13.34912109 0.20532227 C14.73155316 0.21504663 16.11398231 0.22519258 17.49640846 0.23572445 C21.18810339 0.26269121 24.87981012 0.28391128 28.57154846 0.30391693 C32.0396674 0.32358842 35.5077414 0.34847466 38.97583008 0.3729248 C49.1088528 0.44133949 59.24193045 0.50141339 69.375 0.5625 C103.344375 0.7790625 103.344375 0.7790625 138 1 C138 50.83 138 100.66 138 152 C88.17 152 38.34 152 -13 152 C-13.4375 82.125 -13.4375 82.125 -13.56811523 60.03173828 C-13.61135093 53.51731427 -13.61135093 53.51731427 -13.65589905 47.00289917 C-13.67576278 44.09299678 -13.69284219 41.18309209 -13.70826721 38.27316284 C-13.72800571 34.56646746 -13.75242704 30.85983126 -13.78030598 27.15318847 C-13.79422384 25.14413353 -13.80327563 23.1350467 -13.81216335 21.12596321 C-13.82193738 19.947694 -13.83171141 18.76942478 -13.84178162 17.55545044 C-13.84823417 16.52488588 -13.85468672 15.49432133 -13.8613348 14.43252754 C-13.83960567 11.99113453 -13.83960567 11.99113453 -15 10 C-15.06950541 8.45976004 -15.08452357 6.91665012 -15.0625 5.375 C-15.05347656 4.55773437 -15.04445313 3.74046875 -15.03515625 2.8984375 C-15.02355469 2.27195312 -15.01195313 1.64546875 -15 1 C-9.56379317 -0.81206894 -5.6031805 -0.94170375 0 0 Z M1 14 C0.10107593 17.07938194 -0.12561122 19.82687837 -0.12698364 23.029953 C-0.12980347 24.04370499 -0.13262329 25.05745697 -0.13552856 26.10192871 C-0.13350433 27.20806519 -0.1314801 28.31420166 -0.12939453 29.45385742 C-0.13114685 30.6232637 -0.13289917 31.79266998 -0.13470459 32.99751282 C-0.13910981 36.86684651 -0.13619033 40.73613459 -0.1328125 44.60546875 C-0.13348578 47.28778643 -0.13445437 49.97010271 -0.13571167 52.65242004 C-0.1375301 58.27373755 -0.13513481 63.89504191 -0.13037109 69.51635742 C-0.12492116 76.02273013 -0.12669773 82.52907153 -0.1321975 89.03544348 C-0.13672846 94.61851113 -0.13737951 100.20156934 -0.13475883 105.78463823 C-0.13319698 109.12077005 -0.13299995 112.4568902 -0.13629532 115.79302025 C-0.1388197 119.50681081 -0.13498466 123.2205402 -0.12939453 126.93432617 C-0.13141876 128.04653534 -0.13344299 129.15874451 -0.13552856 130.30465698 C-0.13270874 131.30994949 -0.12988892 132.315242 -0.12698364 133.35099792 C-0.12660662 134.22980212 -0.12622959 135.10860632 -0.12584114 136.01404095 C-0.21961144 138.00071357 -0.21961144 138.00071357 1 139 C2.59189973 139.09814195 4.18815907 139.12631906 5.78308105 139.12698364 C7.33538673 139.13121338 7.33538673 139.13121338 8.91905212 139.13552856 C10.06402664 139.13350433 11.20900116 139.1314801 12.38867188 139.12939453 C13.58690079 139.13114685 14.7851297 139.13289917 16.01966858 139.13470459 C19.31504792 139.13836275 22.61036484 139.1374897 25.90574074 139.1343255 C29.34727693 139.13180149 32.78881038 139.13413956 36.23034668 139.13571167 C42.01082847 139.13753325 47.79129749 139.13512737 53.57177734 139.13037109 C60.26383534 139.12492849 66.95586287 139.12669116 73.64792013 139.1321975 C79.3837922 139.13672897 85.11965508 139.13737901 90.85552835 139.13475883 C94.28560288 139.13319624 97.71566307 139.13300179 101.14573669 139.13629532 C104.96761264 139.13970843 108.7894542 139.13498373 112.61132812 139.12939453 C113.75630264 139.13141876 114.90127716 139.13344299 116.08094788 139.13552856 C117.63325356 139.13129883 117.63325356 139.13129883 119.21691895 139.12698364 C120.12174263 139.12660662 121.02656631 139.12622959 121.9588089 139.12584114 C123.9942422 139.2265097 123.9942422 139.2265097 125 138 C125.09597204 136.40577964 125.12187924 134.8072955 125.12025452 133.21018982 C125.12162918 132.17387421 125.12300385 131.13755859 125.12442017 130.06983948 C125.12082489 128.92329391 125.11722961 127.77674835 125.11352539 126.59545898 C125.11367142 125.39562378 125.11381744 124.19578857 125.1139679 122.95959473 C125.11338894 119.66014809 125.10835978 116.36076336 125.10139394 113.0613277 C125.09515973 109.61665703 125.09455655 106.17198562 125.09336853 102.72731018 C125.09025541 96.2001727 125.08204229 89.67305189 125.07201904 83.14592177 C125.0608573 75.71677984 125.0553473 68.28763714 125.05032361 60.85848892 C125.03985966 45.57231628 125.0222606 30.28616028 125 15 C116.76006692 14.27285999 108.60544442 13.85647487 100.3347168 13.88647461 C99.25017212 13.88632858 98.16562744 13.88618256 97.04821777 13.8860321 C93.5151967 13.88672069 89.98223044 13.89446296 86.44921875 13.90234375 C83.9791517 13.90421168 81.50908428 13.90563381 79.03901672 13.90663147 C72.5766597 13.91042709 66.11432559 13.92023176 59.65197754 13.93133545 C53.04207672 13.94161349 46.43217215 13.94614272 39.82226562 13.95117188 C26.88150071 13.961857 13.94075158 13.97870184 1 14 Z " fill="#04D1F1" transform="translate(88,88)"/>
<path d="M0 0 C16.83 0 33.66 0 51 0 C51 16.83 51 33.66 51 51 C34.17 51 17.34 51 0 51 C0 34.17 0 17.34 0 0 Z " fill="#0DD3F2" transform="translate(125,139)"/>
<path d="M0 0 C1.40342982 0.00138269 1.40342982 0.00138269 2.83521175 0.00279331 C3.90518398 0.00141865 4.97515621 0.00004398 6.07755184 -0.00137234 C7.26150036 0.00222294 8.44544888 0.00581821 9.66527462 0.00952244 C11.52354885 0.0093034 11.52354885 0.0093034 13.41936398 0.00907993 C16.82624443 0.00965891 20.23306494 0.01468824 23.63993478 0.02165389 C27.19671437 0.0278879 30.75349468 0.02849126 34.31027889 0.0296793 C41.04991192 0.03279248 47.78952881 0.04100568 54.52915472 0.05102879 C62.20013009 0.06219035 69.87110621 0.06770048 77.54208767 0.07272422 C93.32591651 0.08318831 109.10972923 0.10078748 124.8935461 0.12304783 C124.91687506 16.53413469 124.93452526 32.94521619 124.94535828 49.35631561 C124.95052124 56.97574956 124.95756395 64.59517322 124.96898556 72.21460056 C124.97893238 78.8533361 124.98539953 85.4920642 124.9876346 92.13080698 C124.98894171 95.64809119 124.99202758 99.16535409 124.99927616 102.68263149 C125.00728999 106.60279721 125.00753724 110.52294182 125.0070715 114.44311619 C125.01066677 115.61771397 125.01426205 116.79231174 125.01796627 118.0025034 C125.01659161 119.06406147 125.01521694 120.12561954 125.01380062 121.21934605 C125.01518331 122.61171435 125.01518331 122.61171435 125.01659393 124.0322113 C124.8935461 126.12304783 124.8935461 126.12304783 123.8935461 127.12304783 C122.26131154 127.21910647 120.62490221 127.24492604 118.98984432 127.24330235 C117.39750721 127.24536434 117.39750721 127.24536434 115.77300167 127.24746799 C114.59840389 127.24387272 113.42380611 127.24027744 112.21361446 127.23657322 C110.98451855 127.23671925 109.75542263 127.23686527 108.48908138 127.23701572 C105.10905939 127.23643675 101.72909781 127.23140746 98.34908652 127.22444177 C94.82033416 127.21820771 91.29158108 127.21760439 87.76282406 127.21641636 C81.07631492 127.2133032 74.38982205 127.20509001 67.70332009 127.19506687 C60.09280308 127.18390527 52.48228531 127.17839516 44.87176216 127.17337143 C29.21234737 127.16290739 13.55294883 127.14530824 -2.1064539 127.12304783 C-3.35174569 124.63246423 -3.23228442 122.96886181 -3.23343754 120.18174839 C-3.23625736 119.13708912 -3.23907719 118.09242985 -3.24198246 117.01611423 C-3.23995823 115.86538425 -3.237934 114.71465427 -3.23584843 113.52905369 C-3.23760075 112.32092518 -3.23935307 111.11279667 -3.24115849 109.8680582 C-3.24481269 106.55001164 -3.24394622 103.23202719 -3.2407794 99.91398406 C-3.23825282 96.4470958 -3.24059412 92.98021024 -3.24216557 89.51332188 C-3.24398614 83.69173803 -3.24158362 77.87016686 -3.23682499 72.04858494 C-3.23138003 65.30935906 -3.23314717 58.57016343 -3.23865139 51.83093828 C-3.24318266 46.05258358 -3.24383309 40.274238 -3.24121273 34.49588209 C-3.23965035 31.04123028 -3.23945515 27.5865927 -3.24274921 24.1319418 C-3.24616202 20.28383162 -3.24143799 16.4357556 -3.23584843 12.58764744 C-3.23888477 10.85851612 -3.23888477 10.85851612 -3.24198246 9.09445286 C-3.23916264 8.05261341 -3.23634281 7.01077396 -3.23343754 5.93736362 C-3.232872 4.57101481 -3.232872 4.57101481 -3.23229504 3.17706299 C-3.05974033 0.36057561 -2.81741304 0.16457828 0 0 Z M-1.1064539 1.12304783 C-2.00537796 4.20242977 -2.23206512 6.9499262 -2.23343754 10.15300083 C-2.23625736 11.16675282 -2.23907719 12.1805048 -2.24198246 13.22497654 C-2.23995823 14.33111301 -2.237934 15.43724949 -2.23584843 16.57690525 C-2.23760075 17.74631153 -2.23935307 18.91571781 -2.24115849 20.12056065 C-2.2455637 23.98989434 -2.24264422 27.85918242 -2.2392664 31.72851658 C-2.23993968 34.41083426 -2.24090826 37.09315054 -2.24216557 39.77546787 C-2.243984 45.39678538 -2.24158871 51.01808974 -2.23682499 56.63940525 C-2.23137505 63.14577795 -2.23315163 69.65211936 -2.23865139 76.15849131 C-2.24318235 81.74155896 -2.2438334 87.32461716 -2.24121273 92.90768605 C-2.23965088 96.24381788 -2.23945384 99.57993803 -2.24274921 102.91606808 C-2.24527359 106.62985864 -2.24143855 110.34358803 -2.23584843 114.057374 C-2.23787266 115.16958317 -2.23989689 116.28179234 -2.24198246 117.42770481 C-2.23916264 118.43299732 -2.23634281 119.43828983 -2.23343754 120.47404575 C-2.23306051 121.35284995 -2.23268349 122.23165415 -2.23229504 123.13708878 C-2.32606533 125.1237614 -2.32606533 125.1237614 -1.1064539 126.12304783 C0.48544583 126.22118978 2.08170517 126.24936689 3.67662716 126.25003147 C5.22893284 126.25426121 5.22893284 126.25426121 6.81259823 126.25857639 C7.95757275 126.25655216 9.10254726 126.25452793 10.28221798 126.25244236 C11.48044689 126.25419468 12.6786758 126.255947 13.91321468 126.25775242 C17.20859402 126.26141057 20.50391094 126.26053753 23.79928684 126.25737333 C27.24082304 126.25484932 30.68235649 126.25718738 34.12389278 126.2587595 C39.90437457 126.26058107 45.6848436 126.2581752 51.46532345 126.25341892 C58.15738144 126.24797632 64.84940898 126.24973899 71.54146624 126.25524533 C77.2773383 126.2597768 83.01320118 126.26042684 88.74907446 126.25780666 C92.17914899 126.25624407 95.60920918 126.25604961 99.0392828 126.25934315 C102.86115875 126.26275626 106.68300031 126.25803156 110.50487423 126.25244236 C111.64984875 126.25446659 112.79482327 126.25649082 113.97449398 126.25857639 C115.52679966 126.25434666 115.52679966 126.25434666 117.11046505 126.25003147 C118.01528873 126.24965445 118.92011242 126.24927742 119.852355 126.24888897 C121.8877883 126.34955753 121.8877883 126.34955753 122.8935461 125.12304783 C122.98951814 123.52882747 123.01542535 121.93034333 123.01380062 120.33323765 C123.01517529 119.29692204 123.01654995 118.26060642 123.01796627 117.19288731 C123.01437099 116.04634174 123.01077572 114.89979618 123.0070715 113.71850681 C123.00721752 112.51867161 123.00736355 111.3188364 123.007514 110.08264256 C123.00693504 106.78319592 123.00190588 103.48381119 122.99494004 100.18437552 C122.98870583 96.73970486 122.98810265 93.29503345 122.98691463 89.85035801 C122.98380152 83.32322053 122.97558839 76.79609972 122.96556515 70.2689696 C122.9544034 62.83982767 122.9488934 55.41068496 122.94386971 47.98153675 C122.93340576 32.69536411 122.9158067 17.40920811 122.8935461 2.12304783 C114.65361302 1.39590782 106.49899052 0.97952269 98.2282629 1.00952244 C97.14371822 1.00937641 96.05917355 1.00923038 94.94176388 1.00907993 C91.40874281 1.00976852 87.87577655 1.01751079 84.34276485 1.02539158 C81.87269781 1.02725951 79.40263038 1.02868164 76.93256283 1.0296793 C70.4702058 1.03347492 64.00787169 1.04327959 57.54552364 1.05438328 C50.93562282 1.06466132 44.32571826 1.06919055 37.71581173 1.0742197 C24.77504681 1.08490483 11.83429769 1.10174967 -1.1064539 1.12304783 Z " fill="#50CEE0" transform="translate(90.10645389556885,100.87695217132568)"/>
<path d="M0 0 C1.98526835 0.09514054 3.97303439 0.14554758 5.96054077 0.15821838 C7.12752691 0.16799241 8.29451305 0.17776644 9.49686241 0.18783665 C11.40373046 0.19649203 11.40373046 0.19649203 13.34912109 0.20532227 C14.73155316 0.21504663 16.11398231 0.22519258 17.49640846 0.23572445 C21.18810339 0.26269121 24.87981012 0.28391128 28.57154846 0.30391693 C32.0396674 0.32358842 35.5077414 0.34847466 38.97583008 0.3729248 C49.1088528 0.44133949 59.24193045 0.50141339 69.375 0.5625 C103.344375 0.7790625 103.344375 0.7790625 138 1 C138 50.83 138 100.66 138 152 C88.17 152 38.34 152 -13 152 C-13.4375 82.125 -13.4375 82.125 -13.56811523 60.03173828 C-13.61135093 53.51731427 -13.61135093 53.51731427 -13.65589905 47.00289917 C-13.67576278 44.09299678 -13.69284219 41.18309209 -13.70826721 38.27316284 C-13.72800571 34.56646746 -13.75242704 30.85983126 -13.78030598 27.15318847 C-13.79422384 25.14413353 -13.80327563 23.1350467 -13.81216335 21.12596321 C-13.82193738 19.947694 -13.83171141 18.76942478 -13.84178162 17.55545044 C-13.84823417 16.52488588 -13.85468672 15.49432133 -13.8613348 14.43252754 C-13.83960567 11.99113453 -13.83960567 11.99113453 -15 10 C-15.06950541 8.45976004 -15.08452357 6.91665012 -15.0625 5.375 C-15.05347656 4.55773437 -15.04445313 3.74046875 -15.03515625 2.8984375 C-15.02355469 2.27195312 -15.01195313 1.64546875 -15 1 C-9.56379317 -0.81206894 -5.6031805 -0.94170375 0 0 Z M-12 2 C-12 51.17 -12 100.34 -12 151 C37.17 151 86.34 151 137 151 C137 101.83 137 52.66 137 2 C87.83 2 38.66 2 -12 2 Z " fill="#7EE8F8" transform="translate(88,88)"/>
<path d="M0 0 C1.175625 0.14985352 1.175625 0.14985352 2.375 0.30273438 C4.29266838 0.54828947 6.20898925 0.80432929 8.125 1.0625 C8.125 1.3925 8.125 1.7225 8.125 2.0625 C0.535 2.3925 -7.055 2.7225 -14.875 3.0625 C-15.205 6.0325 -15.535 9.0025 -15.875 12.0625 C-17.875 10.0625 -17.875 10.0625 -18.0703125 7.8984375 C-18.04710938 7.08632812 -18.02390625 6.27421875 -18 5.4375 C-17.98195313 4.62023437 -17.96390625 3.80296875 -17.9453125 2.9609375 C-17.92210938 2.33445312 -17.89890625 1.70796875 -17.875 1.0625 C-11.60100467 -1.02883178 -6.43792743 -0.87839518 0 0 Z " fill="#C2F3F9" transform="translate(90.875,87.9375)"/>
</svg>
